<svg xmlns="http://www.w3.org/2000/svg" viewBox="0 0 45 45"><defs><style>.cls-1{fill:#fff;}</style></defs><g id="レイヤー_2" data-name="レイヤー 2"><path d="M42.06,27H56.85c.14,0,.28.06.42.07,1.43.13,2.89.13,4.29.39a11.51,11.51,0,0,1,9.73,9.06,27.61,27.61,0,0,1,.59,6.72q.06,6.61,0,13.23a31.41,31.41,0,0,1-.41,5.13,11.47,11.47,0,0,1-9,9.69,27.25,27.25,0,0,1-6.68.59c-4.67,0-9.35,0-14,0a22,22,0,0,1-5.25-.55,11.45,11.45,0,0,1-8.09-6.7,16.92,16.92,0,0,1-1.25-6.33c0-.47-.07-.93-.1-1.4V42.06a3.07,3.07,0,0,0,.07-.42,23.51,23.51,0,0,1,.56-5.16,11.45,11.45,0,0,1,6.82-8.19,17.35,17.35,0,0,1,6.21-1.19C41.13,27.08,41.59,27,42.06,27Zm7.35,40.9v-.07c1.88,0,3.77,0,5.65,0s3.53-.11,5.29-.29a8,8,0,0,0,4.55-1.93,8.19,8.19,0,0,0,2.7-6c.17-2.63.2-5.28.24-7.92s0-5.25,0-7.88c0-1.76-.11-3.53-.29-5.28A8.05,8.05,0,0,0,65.63,34a8.21,8.21,0,0,0-6-2.73c-2.63-.16-5.28-.2-7.92-.24s-5.25,0-7.88,0c-1.76,0-3.53.11-5.28.28A8.05,8.05,0,0,0,34,33.28a8.23,8.23,0,0,0-2.73,6c-.16,2.63-.2,5.28-.24,7.92s0,5.25,0,7.88a45,45,0,0,0,.39,5.81,7.32,7.32,0,0,0,5.64,6.35,14.82,14.82,0,0,0,3.25.47C43.39,67.82,46.4,67.84,49.41,67.9Z" transform="translate(-27 -27)"/><path class="cls-1" d="M27,56.85c0,.47.08.93.1,1.4a16.92,16.92,0,0,0,1.25,6.33,11.45,11.45,0,0,0,8.09,6.7,22,22,0,0,0,5.25.55c4.67,0,9.35.08,14,0a27.25,27.25,0,0,0,6.68-.59,11.47,11.47,0,0,0,9-9.69,31.41,31.41,0,0,0,.41-5.13q.09-6.61,0-13.23a27.61,27.61,0,0,0-.59-6.72,11.51,11.51,0,0,0-9.73-9.06c-1.4-.26-2.86-.26-4.29-.39-.14,0-.28-.05-.42-.07H72V72H27Z" transform="translate(-27 -27)"/><path class="cls-1" d="M42.06,27c-.47,0-.93.08-1.4.1a17.35,17.35,0,0,0-6.21,1.19,11.45,11.45,0,0,0-6.82,8.19,23.51,23.51,0,0,0-.56,5.16,3.07,3.07,0,0,1-.07.42V27Z" transform="translate(-27 -27)"/><path class="cls-1" d="M49.41,67.9c-3-.06-6-.08-9-.2a14.82,14.82,0,0,1-3.25-.47,7.32,7.32,0,0,1-5.64-6.35,45,45,0,0,1-.39-5.81c-.07-2.63-.07-5.25,0-7.88s.08-5.29.24-7.92a8.23,8.23,0,0,1,2.73-6,8.05,8.05,0,0,1,4.53-1.9c1.75-.17,3.52-.25,5.28-.28q3.94-.09,7.88,0c2.64,0,5.29.08,7.92.24a8.21,8.21,0,0,1,6,2.73,8.05,8.05,0,0,1,1.9,4.53c.18,1.75.25,3.52.29,5.28q.08,3.94,0,7.88c0,2.64-.07,5.29-.24,7.92a8.19,8.19,0,0,1-2.7,6,8,8,0,0,1-4.55,1.93c-1.76.18-3.53.24-5.29.29s-3.77,0-5.65,0ZM61,49.47A11.54,11.54,0,1,0,49.41,61,11.53,11.53,0,0,0,61,49.47Zm3.14-12a2.71,2.71,0,1,0-5.41,0,2.71,2.71,0,0,0,5.41,0Z" transform="translate(-27 -27)"/><path d="M61,49.47A11.54,11.54,0,1,1,49.5,37.92,11.55,11.55,0,0,1,61,49.47ZM49.48,42a7.47,7.47,0,1,0,7.45,7.5A7.47,7.47,0,0,0,49.48,42Z" transform="translate(-27 -27)"/><path d="M64.14,37.48a2.71,2.71,0,1,1-2.7-2.71A2.7,2.7,0,0,1,64.14,37.48Z" transform="translate(-27 -27)"/><path class="cls-1" d="M49.48,42A7.47,7.47,0,1,1,42,49.36,7.48,7.48,0,0,1,49.48,42Z" transform="translate(-27 -27)"/></g></svg>